{
	"patcher" : 	{
		"fileversion" : 1,
		"rect" : [ 0.0, 43.0, 1366.0, 659.0 ],
		"bglocked" : 0,
		"defrect" : [ 0.0, 43.0, 1366.0, 659.0 ],
		"openrect" : [ 0.0, 0.0, 0.0, 0.0 ],
		"openinpresentation" : 0,
		"default_fontsize" : 12.0,
		"default_fontface" : 0,
		"default_fontname" : "Arial",
		"gridonopen" : 0,
		"gridsize" : [ 15.0, 15.0 ],
		"gridsnaponopen" : 0,
		"toolbarvisible" : 1,
		"boxanimatetime" : 200,
		"imprint" : 0,
		"boxes" : [ 			{
				"box" : 				{
					"maxclass" : "newobj",
					"text" : "prepend note",
					"patching_rect" : [ 388.0, 250.0, 81.0, 20.0 ],
					"fontname" : "Arial",
					"numinlets" : 1,
					"fontsize" : 12.0,
					"id" : "obj-12",
					"numoutlets" : 1,
					"outlettype" : [ "" ]
				}

			}
, 			{
				"box" : 				{
					"maxclass" : "newobj",
					"text" : "poly~ granuvoice 16",
					"patching_rect" : [ 388.0, 312.0, 118.0, 20.0 ],
					"fontname" : "Arial",
					"numinlets" : 1,
					"fontsize" : 12.0,
					"id" : "obj-11",
					"numoutlets" : 1,
					"outlettype" : [ "signal" ]
				}

			}
, 			{
				"box" : 				{
					"maxclass" : "newobj",
					"text" : "pack 0 0 0.",
					"patching_rect" : [ 388.0, 176.0, 69.0, 20.0 ],
					"fontname" : "Arial",
					"numinlets" : 3,
					"fontsize" : 12.0,
					"id" : "obj-2",
					"numoutlets" : 1,
					"outlettype" : [ "" ]
				}

			}
, 			{
				"box" : 				{
					"maxclass" : "comment",
					"text" : "TIME GRAIN\n\n",
					"linecount" : 2,
					"patching_rect" : [ 1129.0, 374.0, 147.0, 34.0 ],
					"fontname" : "Arial",
					"numinlets" : 1,
					"fontsize" : 12.0,
					"id" : "obj-97",
					"numoutlets" : 0,
					"bgcolor" : [ 0.929412, 0.360784, 0.360784, 1.0 ]
				}

			}
, 			{
				"box" : 				{
					"maxclass" : "newobj",
					"text" : "p",
					"patching_rect" : [ 1177.0, 512.0, 32.0, 20.0 ],
					"fontname" : "Arial",
					"numinlets" : 2,
					"fontsize" : 12.0,
					"id" : "obj-96",
					"numoutlets" : 0,
					"patcher" : 					{
						"fileversion" : 1,
						"rect" : [ 33.0, 76.0, 640.0, 480.0 ],
						"bglocked" : 0,
						"defrect" : [ 33.0, 76.0, 640.0, 480.0 ],
						"openrect" : [ 0.0, 0.0, 0.0, 0.0 ],
						"openinpresentation" : 0,
						"default_fontsize" : 12.0,
						"default_fontface" : 0,
						"default_fontname" : "Arial",
						"gridonopen" : 0,
						"gridsize" : [ 15.0, 15.0 ],
						"gridsnaponopen" : 0,
						"toolbarvisible" : 1,
						"boxanimatetime" : 200,
						"imprint" : 0,
						"visible" : 1,
						"boxes" : [ 							{
								"box" : 								{
									"maxclass" : "inlet",
									"patching_rect" : [ 222.0, 119.0, 25.0, 25.0 ],
									"numinlets" : 0,
									"id" : "obj-2",
									"numoutlets" : 1,
									"outlettype" : [ "" ],
									"comment" : ""
								}

							}
, 							{
								"box" : 								{
									"maxclass" : "inlet",
									"patching_rect" : [ 117.0, 120.0, 25.0, 25.0 ],
									"numinlets" : 0,
									"id" : "obj-1",
									"numoutlets" : 1,
									"outlettype" : [ "" ],
									"comment" : ""
								}

							}
, 							{
								"box" : 								{
									"maxclass" : "button",
									"patching_rect" : [ 257.0, 240.0, 20.0, 20.0 ],
									"numinlets" : 1,
									"id" : "obj-94",
									"numoutlets" : 1,
									"outlettype" : [ "bang" ]
								}

							}
, 							{
								"box" : 								{
									"maxclass" : "flonum",
									"patching_rect" : [ 203.0, 346.0, 50.0, 20.0 ],
									"fontname" : "Arial",
									"numinlets" : 1,
									"fontsize" : 12.0,
									"id" : "obj-92",
									"numoutlets" : 2,
									"outlettype" : [ "float", "bang" ]
								}

							}
, 							{
								"box" : 								{
									"maxclass" : "newobj",
									"text" : "s rnd",
									"patching_rect" : [ 148.0, 343.0, 37.0, 20.0 ],
									"fontname" : "Arial",
									"numinlets" : 1,
									"fontsize" : 12.0,
									"id" : "obj-89",
									"numoutlets" : 0
								}

							}
, 							{
								"box" : 								{
									"maxclass" : "newobj",
									"text" : "r b",
									"patching_rect" : [ 133.0, 261.0, 25.0, 20.0 ],
									"fontname" : "Arial",
									"numinlets" : 0,
									"fontsize" : 12.0,
									"id" : "obj-88",
									"numoutlets" : 1,
									"outlettype" : [ "" ]
								}

							}
, 							{
								"box" : 								{
									"maxclass" : "newobj",
									"text" : "+",
									"patching_rect" : [ 149.0, 313.0, 32.5, 20.0 ],
									"fontname" : "Arial",
									"numinlets" : 2,
									"fontsize" : 12.0,
									"id" : "obj-34",
									"numoutlets" : 1,
									"outlettype" : [ "int" ]
								}

							}
, 							{
								"box" : 								{
									"maxclass" : "rslider",
									"patching_rect" : [ 120.0, 164.0, 124.0, 33.0 ],
									"size" : 2001.0,
									"numinlets" : 2,
									"id" : "obj-84",
									"numoutlets" : 2,
									"outlettype" : [ "", "" ]
								}

							}
, 							{
								"box" : 								{
									"maxclass" : "newobj",
									"text" : "random",
									"patching_rect" : [ 171.0, 280.0, 51.0, 20.0 ],
									"fontname" : "Arial",
									"numinlets" : 2,
									"fontsize" : 12.0,
									"id" : "obj-31",
									"numoutlets" : 1,
									"outlettype" : [ "int" ]
								}

							}
, 							{
								"box" : 								{
									"maxclass" : "newobj",
									"text" : "!-",
									"patching_rect" : [ 160.0, 213.0, 32.5, 20.0 ],
									"fontname" : "Arial",
									"numinlets" : 2,
									"fontsize" : 12.0,
									"id" : "obj-28",
									"numoutlets" : 1,
									"outlettype" : [ "int" ]
								}

							}
 ],
						"lines" : [ 							{
								"patchline" : 								{
									"source" : [ "obj-1", 0 ],
									"destination" : [ "obj-84", 0 ],
									"hidden" : 0,
									"midpoints" : [ 126.5, 154.0, 129.5, 154.0 ]
								}

							}
, 							{
								"patchline" : 								{
									"source" : [ "obj-2", 0 ],
									"destination" : [ "obj-84", 1 ],
									"hidden" : 0,
									"midpoints" : [ 231.5, 153.5, 234.5, 153.5 ]
								}

							}
, 							{
								"patchline" : 								{
									"source" : [ "obj-28", 0 ],
									"destination" : [ "obj-31", 1 ],
									"hidden" : 0,
									"midpoints" : [ 169.5, 256.0, 212.5, 256.0 ]
								}

							}
, 							{
								"patchline" : 								{
									"source" : [ "obj-84", 0 ],
									"destination" : [ "obj-28", 0 ],
									"hidden" : 0,
									"midpoints" : [ 129.5, 194.0, 169.5, 194.0 ]
								}

							}
, 							{
								"patchline" : 								{
									"source" : [ "obj-84", 1 ],
									"destination" : [ "obj-28", 1 ],
									"hidden" : 0,
									"midpoints" : [ 234.5, 194.0, 183.0, 194.0 ]
								}

							}
, 							{
								"patchline" : 								{
									"source" : [ "obj-84", 0 ],
									"destination" : [ "obj-34", 1 ],
									"hidden" : 0,
									"midpoints" : [ 129.5, 254.5, 172.0, 254.5 ]
								}

							}
, 							{
								"patchline" : 								{
									"source" : [ "obj-31", 0 ],
									"destination" : [ "obj-34", 0 ],
									"hidden" : 0,
									"midpoints" : [ 180.5, 306.0, 158.5, 306.0 ]
								}

							}
, 							{
								"patchline" : 								{
									"source" : [ "obj-88", 0 ],
									"destination" : [ "obj-31", 0 ],
									"hidden" : 0,
									"midpoints" : [  ]
								}

							}
, 							{
								"patchline" : 								{
									"source" : [ "obj-34", 0 ],
									"destination" : [ "obj-89", 0 ],
									"hidden" : 0,
									"midpoints" : [  ]
								}

							}
, 							{
								"patchline" : 								{
									"source" : [ "obj-34", 0 ],
									"destination" : [ "obj-92", 0 ],
									"hidden" : 0,
									"midpoints" : [  ]
								}

							}
, 							{
								"patchline" : 								{
									"source" : [ "obj-94", 0 ],
									"destination" : [ "obj-31", 0 ],
									"hidden" : 0,
									"midpoints" : [  ]
								}

							}
, 							{
								"patchline" : 								{
									"source" : [ "obj-84", 0 ],
									"destination" : [ "obj-94", 0 ],
									"hidden" : 0,
									"midpoints" : [ 129.5, 203.0, 266.5, 203.0 ]
								}

							}
, 							{
								"patchline" : 								{
									"source" : [ "obj-84", 1 ],
									"destination" : [ "obj-94", 0 ],
									"hidden" : 0,
									"midpoints" : [ 234.5, 203.0, 266.5, 203.0 ]
								}

							}
 ]
					}
,
					"saved_object_attributes" : 					{
						"default_fontsize" : 12.0,
						"fontname" : "Arial",
						"fontface" : 0,
						"default_fontface" : 0,
						"fontsize" : 12.0,
						"default_fontname" : "Arial",
						"globalpatchername" : ""
					}

				}

			}
, 			{
				"box" : 				{
					"maxclass" : "rslider",
					"patching_rect" : [ 1138.0, 442.0, 124.0, 33.0 ],
					"size" : 2001.0,
					"numinlets" : 2,
					"id" : "obj-95",
					"numoutlets" : 2,
					"outlettype" : [ "", "" ]
				}

			}
, 			{
				"box" : 				{
					"maxclass" : "newobj",
					"text" : "r rnd",
					"patching_rect" : [ 395.0, 12.0, 35.0, 20.0 ],
					"fontname" : "Arial",
					"numinlets" : 0,
					"fontsize" : 12.0,
					"id" : "obj-90",
					"numoutlets" : 1,
					"outlettype" : [ "" ]
				}

			}
, 			{
				"box" : 				{
					"maxclass" : "button",
					"patching_rect" : [ 369.0, 20.0, 20.0, 20.0 ],
					"numinlets" : 1,
					"id" : "obj-87",
					"numoutlets" : 1,
					"outlettype" : [ "bang" ]
				}

			}
, 			{
				"box" : 				{
					"maxclass" : "newobj",
					"text" : "metro 100",
					"patching_rect" : [ 369.0, 49.0, 65.0, 20.0 ],
					"fontname" : "Arial",
					"numinlets" : 2,
					"fontsize" : 12.0,
					"id" : "obj-85",
					"numoutlets" : 1,
					"outlettype" : [ "bang" ]
				}

			}
, 			{
				"box" : 				{
					"maxclass" : "comment",
					"text" : "TRANSPOSE\n",
					"patching_rect" : [ 1127.0, 232.0, 150.0, 20.0 ],
					"fontname" : "Arial",
					"numinlets" : 1,
					"fontsize" : 12.0,
					"id" : "obj-78",
					"numoutlets" : 0,
					"bgcolor" : [ 0.929412, 0.360784, 0.360784, 1.0 ]
				}

			}
, 			{
				"box" : 				{
					"maxclass" : "newobj",
					"text" : "p",
					"patching_rect" : [ 1158.0, 341.0, 94.0, 20.0 ],
					"fontname" : "Arial",
					"numinlets" : 2,
					"fontsize" : 12.0,
					"id" : "obj-75",
					"numoutlets" : 0,
					"patcher" : 					{
						"fileversion" : 1,
						"rect" : [ 33.0, 76.0, 640.0, 480.0 ],
						"bglocked" : 0,
						"defrect" : [ 33.0, 76.0, 640.0, 480.0 ],
						"openrect" : [ 0.0, 0.0, 0.0, 0.0 ],
						"openinpresentation" : 0,
						"default_fontsize" : 12.0,
						"default_fontface" : 0,
						"default_fontname" : "Arial",
						"gridonopen" : 0,
						"gridsize" : [ 15.0, 15.0 ],
						"gridsnaponopen" : 0,
						"toolbarvisible" : 1,
						"boxanimatetime" : 200,
						"imprint" : 0,
						"boxes" : [ 							{
								"box" : 								{
									"maxclass" : "inlet",
									"patching_rect" : [ 322.0, 96.0, 25.0, 25.0 ],
									"numinlets" : 0,
									"id" : "obj-3",
									"numoutlets" : 1,
									"outlettype" : [ "" ],
									"comment" : ""
								}

							}
, 							{
								"box" : 								{
									"maxclass" : "inlet",
									"patching_rect" : [ 192.0, 96.0, 25.0, 25.0 ],
									"numinlets" : 0,
									"id" : "obj-1",
									"numoutlets" : 1,
									"outlettype" : [ "" ],
									"comment" : ""
								}

							}
, 							{
								"box" : 								{
									"maxclass" : "newobj",
									"text" : "s transpose",
									"patching_rect" : [ 193.0, 371.0, 73.0, 20.0 ],
									"fontname" : "Arial",
									"numinlets" : 1,
									"fontsize" : 12.0,
									"id" : "obj-73",
									"numoutlets" : 0
								}

							}
, 							{
								"box" : 								{
									"maxclass" : "newobj",
									"text" : "/ 261.62558",
									"patching_rect" : [ 194.0, 344.0, 74.0, 20.0 ],
									"fontname" : "Arial",
									"numinlets" : 2,
									"fontsize" : 12.0,
									"id" : "obj-70",
									"numoutlets" : 1,
									"outlettype" : [ "float" ]
								}

							}
, 							{
								"box" : 								{
									"maxclass" : "newobj",
									"text" : "mtof",
									"patching_rect" : [ 194.0, 308.0, 34.0, 20.0 ],
									"fontname" : "Arial",
									"numinlets" : 1,
									"fontsize" : 12.0,
									"id" : "obj-69",
									"numoutlets" : 1,
									"outlettype" : [ "" ]
								}

							}
, 							{
								"box" : 								{
									"maxclass" : "flonum",
									"patching_rect" : [ 342.0, 157.0, 50.0, 20.0 ],
									"fontname" : "Arial",
									"numinlets" : 1,
									"fontsize" : 12.0,
									"id" : "obj-66",
									"numoutlets" : 2,
									"outlettype" : [ "float", "bang" ]
								}

							}
, 							{
								"box" : 								{
									"maxclass" : "flonum",
									"patching_rect" : [ 140.0, 155.0, 50.0, 20.0 ],
									"fontname" : "Arial",
									"numinlets" : 1,
									"fontsize" : 12.0,
									"id" : "obj-65",
									"numoutlets" : 2,
									"outlettype" : [ "float", "bang" ]
								}

							}
, 							{
								"box" : 								{
									"maxclass" : "newobj",
									"text" : "+ 36",
									"patching_rect" : [ 305.0, 139.0, 34.0, 20.0 ],
									"fontname" : "Arial",
									"numinlets" : 2,
									"fontsize" : 12.0,
									"id" : "obj-63",
									"numoutlets" : 1,
									"outlettype" : [ "int" ]
								}

							}
, 							{
								"box" : 								{
									"maxclass" : "newobj",
									"text" : "+ 36",
									"patching_rect" : [ 197.0, 137.0, 34.0, 20.0 ],
									"fontname" : "Arial",
									"numinlets" : 2,
									"fontsize" : 12.0,
									"id" : "obj-61",
									"numoutlets" : 1,
									"outlettype" : [ "int" ]
								}

							}
, 							{
								"box" : 								{
									"maxclass" : "flonum",
									"patching_rect" : [ 229.0, 307.0, 50.0, 20.0 ],
									"fontname" : "Arial",
									"numinlets" : 1,
									"fontsize" : 12.0,
									"id" : "obj-57",
									"numoutlets" : 2,
									"outlettype" : [ "float", "bang" ]
								}

							}
, 							{
								"box" : 								{
									"maxclass" : "button",
									"patching_rect" : [ 156.0, 217.0, 20.0, 20.0 ],
									"numinlets" : 1,
									"id" : "obj-55",
									"numoutlets" : 1,
									"outlettype" : [ "bang" ]
								}

							}
, 							{
								"box" : 								{
									"maxclass" : "newobj",
									"text" : "+",
									"patching_rect" : [ 226.0, 265.0, 32.5, 20.0 ],
									"fontname" : "Arial",
									"numinlets" : 2,
									"fontsize" : 12.0,
									"id" : "obj-34",
									"numoutlets" : 1,
									"outlettype" : [ "int" ]
								}

							}
, 							{
								"box" : 								{
									"maxclass" : "newobj",
									"text" : "random",
									"patching_rect" : [ 248.0, 232.0, 51.0, 20.0 ],
									"fontname" : "Arial",
									"numinlets" : 2,
									"fontsize" : 12.0,
									"id" : "obj-31",
									"numoutlets" : 1,
									"outlettype" : [ "int" ]
								}

							}
, 							{
								"box" : 								{
									"maxclass" : "newobj",
									"text" : "!-",
									"patching_rect" : [ 237.0, 165.0, 32.5, 20.0 ],
									"fontname" : "Arial",
									"numinlets" : 2,
									"fontsize" : 12.0,
									"id" : "obj-28",
									"numoutlets" : 1,
									"outlettype" : [ "int" ]
								}

							}
 ],
						"lines" : [ 							{
								"patchline" : 								{
									"source" : [ "obj-3", 0 ],
									"destination" : [ "obj-63", 0 ],
									"hidden" : 0,
									"midpoints" : [ 331.5, 129.5, 314.5, 129.5 ]
								}

							}
, 							{
								"patchline" : 								{
									"source" : [ "obj-1", 0 ],
									"destination" : [ "obj-61", 0 ],
									"hidden" : 0,
									"midpoints" : [ 201.5, 128.5, 206.5, 128.5 ]
								}

							}
, 							{
								"patchline" : 								{
									"source" : [ "obj-28", 0 ],
									"destination" : [ "obj-31", 1 ],
									"hidden" : 0,
									"midpoints" : [ 246.5, 207.0, 289.5, 207.0 ]
								}

							}
, 							{
								"patchline" : 								{
									"source" : [ "obj-31", 0 ],
									"destination" : [ "obj-34", 0 ],
									"hidden" : 0,
									"midpoints" : [ 257.5, 258.0, 235.5, 258.0 ]
								}

							}
, 							{
								"patchline" : 								{
									"source" : [ "obj-55", 0 ],
									"destination" : [ "obj-31", 0 ],
									"hidden" : 0,
									"midpoints" : [ 165.5, 246.0, 211.5, 246.0, 211.5, 222.0, 257.5, 222.0 ]
								}

							}
, 							{
								"patchline" : 								{
									"source" : [ "obj-34", 0 ],
									"destination" : [ "obj-57", 0 ],
									"hidden" : 0,
									"midpoints" : [ 235.5, 295.5, 238.5, 295.5 ]
								}

							}
, 							{
								"patchline" : 								{
									"source" : [ "obj-61", 0 ],
									"destination" : [ "obj-28", 0 ],
									"hidden" : 0,
									"midpoints" : [ 206.5, 160.5, 246.5, 160.5 ]
								}

							}
, 							{
								"patchline" : 								{
									"source" : [ "obj-61", 0 ],
									"destination" : [ "obj-34", 1 ],
									"hidden" : 0,
									"midpoints" : [ 206.5, 210.5, 249.0, 210.5 ]
								}

							}
, 							{
								"patchline" : 								{
									"source" : [ "obj-61", 0 ],
									"destination" : [ "obj-65", 0 ],
									"hidden" : 0,
									"midpoints" : [  ]
								}

							}
, 							{
								"patchline" : 								{
									"source" : [ "obj-63", 0 ],
									"destination" : [ "obj-66", 0 ],
									"hidden" : 0,
									"midpoints" : [  ]
								}

							}
, 							{
								"patchline" : 								{
									"source" : [ "obj-63", 0 ],
									"destination" : [ "obj-28", 1 ],
									"hidden" : 0,
									"midpoints" : [ 314.5, 161.5, 260.0, 161.5 ]
								}

							}
, 							{
								"patchline" : 								{
									"source" : [ "obj-34", 0 ],
									"destination" : [ "obj-69", 0 ],
									"hidden" : 0,
									"midpoints" : [ 235.5, 296.0, 203.5, 296.0 ]
								}

							}
, 							{
								"patchline" : 								{
									"source" : [ "obj-69", 0 ],
									"destination" : [ "obj-70", 0 ],
									"hidden" : 0,
									"midpoints" : [  ]
								}

							}
, 							{
								"patchline" : 								{
									"source" : [ "obj-70", 0 ],
									"destination" : [ "obj-73", 0 ],
									"hidden" : 0,
									"midpoints" : [  ]
								}

							}
, 							{
								"patchline" : 								{
									"source" : [ "obj-65", 0 ],
									"destination" : [ "obj-55", 0 ],
									"hidden" : 0,
									"midpoints" : [ 149.5, 195.5, 165.5, 195.5 ]
								}

							}
, 							{
								"patchline" : 								{
									"source" : [ "obj-66", 0 ],
									"destination" : [ "obj-55", 0 ],
									"hidden" : 0,
									"midpoints" : [ 351.5, 196.5, 165.5, 196.5 ]
								}

							}
 ]
					}
,
					"saved_object_attributes" : 					{
						"default_fontsize" : 12.0,
						"fontname" : "Arial",
						"fontface" : 0,
						"default_fontface" : 0,
						"fontsize" : 12.0,
						"default_fontname" : "Arial",
						"globalpatchername" : ""
					}

				}

			}
, 			{
				"box" : 				{
					"maxclass" : "newobj",
					"text" : "r transpose",
					"patching_rect" : [ 440.0, 146.0, 71.0, 20.0 ],
					"fontname" : "Arial",
					"numinlets" : 0,
					"fontsize" : 12.0,
					"id" : "obj-74",
					"numoutlets" : 1,
					"outlettype" : [ "" ]
				}

			}
, 			{
				"box" : 				{
					"maxclass" : "rslider",
					"patching_rect" : [ 1137.0, 283.0, 124.0, 33.0 ],
					"size" : 49.0,
					"numinlets" : 2,
					"id" : "obj-48",
					"numoutlets" : 2,
					"outlettype" : [ "", "" ]
				}

			}
, 			{
				"box" : 				{
					"maxclass" : "newobj",
					"text" : "p",
					"patching_rect" : [ 1162.0, 133.0, 33.0, 20.0 ],
					"fontname" : "Arial",
					"numinlets" : 2,
					"fontsize" : 12.0,
					"id" : "obj-46",
					"numoutlets" : 1,
					"outlettype" : [ "float" ],
					"patcher" : 					{
						"fileversion" : 1,
						"rect" : [ 455.0, 185.0, 640.0, 480.0 ],
						"bglocked" : 0,
						"defrect" : [ 455.0, 185.0, 640.0, 480.0 ],
						"openrect" : [ 0.0, 0.0, 0.0, 0.0 ],
						"openinpresentation" : 0,
						"default_fontsize" : 12.0,
						"default_fontface" : 0,
						"default_fontname" : "Arial",
						"gridonopen" : 0,
						"gridsize" : [ 15.0, 15.0 ],
						"gridsnaponopen" : 0,
						"toolbarvisible" : 1,
						"boxanimatetime" : 200,
						"imprint" : 0,
						"visible" : 1,
						"boxes" : [ 							{
								"box" : 								{
									"maxclass" : "flonum",
									"patching_rect" : [ 247.0, 188.0, 50.0, 20.0 ],
									"fontname" : "Arial",
									"numinlets" : 1,
									"fontsize" : 12.0,
									"id" : "obj-8",
									"numoutlets" : 2,
									"outlettype" : [ "float", "bang" ]
								}

							}
, 							{
								"box" : 								{
									"maxclass" : "flonum",
									"patching_rect" : [ 253.0, 277.0, 50.0, 20.0 ],
									"fontname" : "Arial",
									"numinlets" : 1,
									"fontsize" : 12.0,
									"id" : "obj-5",
									"numoutlets" : 2,
									"outlettype" : [ "float", "bang" ]
								}

							}
, 							{
								"box" : 								{
									"maxclass" : "button",
									"patching_rect" : [ 331.0, 103.0, 20.0, 20.0 ],
									"numinlets" : 1,
									"id" : "obj-6",
									"numoutlets" : 1,
									"outlettype" : [ "bang" ]
								}

							}
, 							{
								"box" : 								{
									"maxclass" : "outlet",
									"patching_rect" : [ 187.0, 342.0, 25.0, 25.0 ],
									"numinlets" : 1,
									"id" : "obj-4",
									"numoutlets" : 0,
									"comment" : ""
								}

							}
, 							{
								"box" : 								{
									"maxclass" : "inlet",
									"patching_rect" : [ 251.0, 38.0, 25.0, 25.0 ],
									"numinlets" : 0,
									"id" : "obj-3",
									"numoutlets" : 1,
									"outlettype" : [ "" ],
									"comment" : ""
								}

							}
, 							{
								"box" : 								{
									"maxclass" : "inlet",
									"patching_rect" : [ 159.0, 38.0, 25.0, 25.0 ],
									"numinlets" : 0,
									"id" : "obj-2",
									"numoutlets" : 1,
									"outlettype" : [ "" ],
									"comment" : ""
								}

							}
, 							{
								"box" : 								{
									"maxclass" : "flonum",
									"patching_rect" : [ 175.0, 308.0, 50.0, 20.0 ],
									"fontname" : "Arial",
									"numinlets" : 1,
									"fontsize" : 12.0,
									"id" : "obj-42",
									"numoutlets" : 2,
									"outlettype" : [ "float", "bang" ]
								}

							}
, 							{
								"box" : 								{
									"maxclass" : "newobj",
									"text" : "+",
									"patching_rect" : [ 175.0, 274.0, 32.5, 20.0 ],
									"fontname" : "Arial",
									"numinlets" : 2,
									"fontsize" : 12.0,
									"id" : "obj-34",
									"numoutlets" : 1,
									"outlettype" : [ "int" ]
								}

							}
, 							{
								"box" : 								{
									"maxclass" : "rslider",
									"patching_rect" : [ 146.0, 104.0, 124.0, 33.0 ],
									"size" : 2001.0,
									"numinlets" : 2,
									"id" : "obj-33",
									"numoutlets" : 2,
									"outlettype" : [ "", "" ]
								}

							}
, 							{
								"box" : 								{
									"maxclass" : "newobj",
									"text" : "random 0",
									"patching_rect" : [ 197.0, 241.0, 61.0, 20.0 ],
									"fontname" : "Arial",
									"numinlets" : 2,
									"fontsize" : 12.0,
									"id" : "obj-31",
									"numoutlets" : 1,
									"outlettype" : [ "int" ]
								}

							}
, 							{
								"box" : 								{
									"maxclass" : "newobj",
									"text" : "!- 0.",
									"patching_rect" : [ 186.0, 174.0, 32.5, 20.0 ],
									"fontname" : "Arial",
									"numinlets" : 2,
									"fontsize" : 12.0,
									"id" : "obj-28",
									"numoutlets" : 1,
									"outlettype" : [ "float" ]
								}

							}
 ],
						"lines" : [ 							{
								"patchline" : 								{
									"source" : [ "obj-3", 0 ],
									"destination" : [ "obj-6", 0 ],
									"hidden" : 0,
									"midpoints" : [ 260.5, 89.0, 340.5, 89.0 ]
								}

							}
, 							{
								"patchline" : 								{
									"source" : [ "obj-2", 0 ],
									"destination" : [ "obj-6", 0 ],
									"hidden" : 0,
									"midpoints" : [ 168.5, 89.0, 340.5, 89.0 ]
								}

							}
, 							{
								"patchline" : 								{
									"source" : [ "obj-42", 0 ],
									"destination" : [ "obj-4", 0 ],
									"hidden" : 0,
									"midpoints" : [ 184.5, 334.5, 196.5, 334.5 ]
								}

							}
, 							{
								"patchline" : 								{
									"source" : [ "obj-3", 0 ],
									"destination" : [ "obj-33", 1 ],
									"hidden" : 0,
									"midpoints" : [ 260.5, 83.0, 260.5, 83.0 ]
								}

							}
, 							{
								"patchline" : 								{
									"source" : [ "obj-2", 0 ],
									"destination" : [ "obj-33", 0 ],
									"hidden" : 0,
									"midpoints" : [ 168.5, 83.0, 155.5, 83.0 ]
								}

							}
, 							{
								"patchline" : 								{
									"source" : [ "obj-33", 0 ],
									"destination" : [ "obj-34", 1 ],
									"hidden" : 0,
									"midpoints" : [ 155.5, 220.0, 198.0, 220.0 ]
								}

							}
, 							{
								"patchline" : 								{
									"source" : [ "obj-34", 0 ],
									"destination" : [ "obj-42", 0 ],
									"hidden" : 0,
									"midpoints" : [  ]
								}

							}
, 							{
								"patchline" : 								{
									"source" : [ "obj-28", 0 ],
									"destination" : [ "obj-8", 0 ],
									"hidden" : 0,
									"midpoints" : [  ]
								}

							}
, 							{
								"patchline" : 								{
									"source" : [ "obj-33", 1 ],
									"destination" : [ "obj-28", 1 ],
									"hidden" : 0,
									"midpoints" : [ 260.5, 155.0, 209.0, 155.0 ]
								}

							}
, 							{
								"patchline" : 								{
									"source" : [ "obj-33", 0 ],
									"destination" : [ "obj-28", 0 ],
									"hidden" : 0,
									"midpoints" : [ 155.5, 155.0, 195.5, 155.0 ]
								}

							}
, 							{
								"patchline" : 								{
									"source" : [ "obj-28", 0 ],
									"destination" : [ "obj-31", 1 ],
									"hidden" : 0,
									"midpoints" : [ 195.5, 217.0, 248.5, 217.0 ]
								}

							}
, 							{
								"patchline" : 								{
									"source" : [ "obj-31", 0 ],
									"destination" : [ "obj-5", 0 ],
									"hidden" : 0,
									"midpoints" : [  ]
								}

							}
, 							{
								"patchline" : 								{
									"source" : [ "obj-31", 0 ],
									"destination" : [ "obj-34", 0 ],
									"hidden" : 0,
									"midpoints" : [ 206.5, 267.0, 184.5, 267.0 ]
								}

							}
, 							{
								"patchline" : 								{
									"source" : [ "obj-6", 0 ],
									"destination" : [ "obj-31", 0 ],
									"hidden" : 0,
									"midpoints" : [ 340.5, 188.0, 206.5, 188.0 ]
								}

							}
 ]
					}
,
					"saved_object_attributes" : 					{
						"default_fontsize" : 12.0,
						"fontname" : "Arial",
						"fontface" : 0,
						"default_fontface" : 0,
						"fontsize" : 12.0,
						"default_fontname" : "Arial",
						"globalpatchername" : ""
					}

				}

			}
, 			{
				"box" : 				{
					"maxclass" : "rslider",
					"patching_rect" : [ 1126.0, 87.0, 124.0, 33.0 ],
					"size" : 2001.0,
					"numinlets" : 2,
					"id" : "obj-33",
					"numoutlets" : 2,
					"outlettype" : [ "", "" ]
				}

			}
, 			{
				"box" : 				{
					"maxclass" : "newobj",
					"text" : "r grainsize",
					"patching_rect" : [ 849.0, 275.0, 66.0, 20.0 ],
					"fontname" : "Arial",
					"numinlets" : 0,
					"fontsize" : 12.0,
					"id" : "obj-19",
					"numoutlets" : 1,
					"outlettype" : [ "" ]
				}

			}
, 			{
				"box" : 				{
					"maxclass" : "comment",
					"text" : "GRAIN SIZE\n",
					"patching_rect" : [ 1125.0, 52.0, 150.0, 20.0 ],
					"fontname" : "Arial",
					"numinlets" : 1,
					"fontsize" : 12.0,
					"id" : "obj-17",
					"numoutlets" : 0,
					"bgcolor" : [ 0.929412, 0.360784, 0.360784, 1.0 ]
				}

			}
, 			{
				"box" : 				{
					"maxclass" : "newobj",
					"text" : "s grainsize",
					"patching_rect" : [ 1162.0, 194.0, 68.0, 20.0 ],
					"fontname" : "Arial",
					"numinlets" : 1,
					"fontsize" : 12.0,
					"id" : "obj-6",
					"numoutlets" : 0
				}

			}
, 			{
				"box" : 				{
					"maxclass" : "flonum",
					"patching_rect" : [ 1162.0, 162.0, 50.0, 20.0 ],
					"fontname" : "Arial",
					"numinlets" : 1,
					"fontsize" : 12.0,
					"id" : "obj-5",
					"numoutlets" : 2,
					"outlettype" : [ "float", "bang" ]
				}

			}
, 			{
				"box" : 				{
					"maxclass" : "button",
					"patching_rect" : [ 595.0, 9.0, 42.0, 42.0 ],
					"numinlets" : 1,
					"id" : "obj-62",
					"numoutlets" : 1,
					"outlettype" : [ "bang" ]
				}

			}
, 			{
				"box" : 				{
					"maxclass" : "newobj",
					"text" : "r randomend",
					"patching_rect" : [ 352.0, 160.0, 79.0, 20.0 ],
					"fontname" : "Arial",
					"numinlets" : 0,
					"fontsize" : 12.0,
					"id" : "obj-60",
					"numoutlets" : 1,
					"outlettype" : [ "" ]
				}

			}
, 			{
				"box" : 				{
					"maxclass" : "newobj",
					"text" : "s randomend",
					"patching_rect" : [ 699.0, 354.0, 81.0, 20.0 ],
					"fontname" : "Arial",
					"numinlets" : 1,
					"fontsize" : 12.0,
					"id" : "obj-59",
					"numoutlets" : 0
				}

			}
, 			{
				"box" : 				{
					"maxclass" : "message",
					"text" : "731.",
					"patching_rect" : [ 731.0, 304.0, 32.5, 18.0 ],
					"fontname" : "Arial",
					"numinlets" : 2,
					"fontsize" : 12.0,
					"id" : "obj-58",
					"numoutlets" : 1,
					"outlettype" : [ "" ]
				}

			}
, 			{
				"box" : 				{
					"maxclass" : "newobj",
					"text" : "+",
					"patching_rect" : [ 699.0, 308.0, 32.5, 20.0 ],
					"fontname" : "Arial",
					"numinlets" : 2,
					"fontsize" : 12.0,
					"id" : "obj-54",
					"numoutlets" : 1,
					"outlettype" : [ "int" ]
				}

			}
, 			{
				"box" : 				{
					"maxclass" : "flonum",
					"patching_rect" : [ 699.0, 331.0, 50.0, 20.0 ],
					"fontname" : "Arial",
					"numinlets" : 1,
					"fontsize" : 12.0,
					"id" : "obj-53",
					"numoutlets" : 2,
					"outlettype" : [ "float", "bang" ]
				}

			}
, 			{
				"box" : 				{
					"maxclass" : "newobj",
					"text" : "r randomstart",
					"patching_rect" : [ 351.0, 141.0, 82.0, 20.0 ],
					"fontname" : "Arial",
					"numinlets" : 0,
					"fontsize" : 12.0,
					"id" : "obj-51",
					"numoutlets" : 1,
					"outlettype" : [ "" ]
				}

			}
, 			{
				"box" : 				{
					"maxclass" : "newobj",
					"text" : "s randomstart",
					"patching_rect" : [ 774.0, 302.0, 84.0, 20.0 ],
					"fontname" : "Arial",
					"numinlets" : 1,
					"fontsize" : 12.0,
					"id" : "obj-50",
					"numoutlets" : 0
				}

			}
, 			{
				"box" : 				{
					"maxclass" : "button",
					"patching_rect" : [ 714.0, 192.0, 20.0, 20.0 ],
					"numinlets" : 1,
					"id" : "obj-49",
					"numoutlets" : 1,
					"outlettype" : [ "bang" ]
				}

			}
, 			{
				"box" : 				{
					"maxclass" : "flonum",
					"patching_rect" : [ 763.0, 327.0, 50.0, 20.0 ],
					"fontname" : "Arial",
					"numinlets" : 1,
					"fontsize" : 12.0,
					"id" : "obj-47",
					"numoutlets" : 2,
					"outlettype" : [ "float", "bang" ]
				}

			}
, 			{
				"box" : 				{
					"maxclass" : "newobj",
					"text" : "+",
					"patching_rect" : [ 763.0, 275.0, 32.5, 20.0 ],
					"fontname" : "Arial",
					"numinlets" : 2,
					"fontsize" : 12.0,
					"id" : "obj-45",
					"numoutlets" : 1,
					"outlettype" : [ "int" ]
				}

			}
, 			{
				"box" : 				{
					"maxclass" : "newobj",
					"text" : "random",
					"patching_rect" : [ 719.0, 225.0, 51.0, 20.0 ],
					"fontname" : "Arial",
					"numinlets" : 2,
					"fontsize" : 12.0,
					"id" : "obj-44",
					"numoutlets" : 1,
					"outlettype" : [ "int" ]
				}

			}
, 			{
				"box" : 				{
					"maxclass" : "flonum",
					"patching_rect" : [ 786.0, 225.0, 50.0, 20.0 ],
					"fontname" : "Arial",
					"numinlets" : 1,
					"fontsize" : 12.0,
					"id" : "obj-43",
					"numoutlets" : 2,
					"outlettype" : [ "float", "bang" ]
				}

			}
, 			{
				"box" : 				{
					"maxclass" : "newobj",
					"text" : "!-",
					"patching_rect" : [ 786.0, 198.0, 32.5, 20.0 ],
					"fontname" : "Arial",
					"numinlets" : 2,
					"fontsize" : 12.0,
					"id" : "obj-41",
					"numoutlets" : 1,
					"outlettype" : [ "int" ]
				}

			}
, 			{
				"box" : 				{
					"maxclass" : "flonum",
					"patching_rect" : [ 795.0, 166.0, 50.0, 20.0 ],
					"fontname" : "Arial",
					"numinlets" : 1,
					"fontsize" : 12.0,
					"id" : "obj-27",
					"numoutlets" : 2,
					"outlettype" : [ "float", "bang" ]
				}

			}
, 			{
				"box" : 				{
					"maxclass" : "flonum",
					"patching_rect" : [ 743.0, 166.0, 50.0, 20.0 ],
					"fontname" : "Arial",
					"numinlets" : 1,
					"fontsize" : 12.0,
					"id" : "obj-26",
					"numoutlets" : 2,
					"outlettype" : [ "float", "bang" ]
				}

			}
, 			{
				"box" : 				{
					"maxclass" : "waveform~",
					"patching_rect" : [ 670.0, 31.0, 398.0, 106.0 ],
					"setmode" : 1,
					"buffername" : "mysamp",
					"numinlets" : 5,
					"id" : "obj-23",
					"textcolor" : [  ],
					"numoutlets" : 6,
					"outlettype" : [ "float", "float", "float", "float", "list", "" ]
				}

			}
, 			{
				"box" : 				{
					"maxclass" : "ezdac~",
					"patching_rect" : [ 381.0, 682.0, 45.0, 45.0 ],
					"numinlets" : 2,
					"id" : "obj-15",
					"numoutlets" : 0
				}

			}
, 			{
				"box" : 				{
					"maxclass" : "gain~",
					"patching_rect" : [ 390.0, 484.0, 23.0, 155.0 ],
					"numinlets" : 2,
					"id" : "obj-14",
					"numoutlets" : 2,
					"outlettype" : [ "signal", "int" ]
				}

			}
, 			{
				"box" : 				{
					"maxclass" : "newobj",
					"text" : "send samplelength",
					"patching_rect" : [ 121.0, 199.0, 111.0, 20.0 ],
					"fontname" : "Arial",
					"numinlets" : 1,
					"fontsize" : 12.0,
					"id" : "obj-10",
					"numoutlets" : 0
				}

			}
, 			{
				"box" : 				{
					"maxclass" : "flonum",
					"patching_rect" : [ 77.0, 184.0, 50.0, 20.0 ],
					"fontname" : "Arial",
					"numinlets" : 1,
					"fontsize" : 12.0,
					"id" : "obj-9",
					"numoutlets" : 2,
					"outlettype" : [ "float", "bang" ]
				}

			}
, 			{
				"box" : 				{
					"maxclass" : "newobj",
					"text" : "info~ mysamp",
					"patching_rect" : [ 6.0, 143.0, 113.5, 20.0 ],
					"fontname" : "Arial",
					"numinlets" : 1,
					"fontsize" : 12.0,
					"id" : "obj-7",
					"numoutlets" : 8,
					"outlettype" : [ "float", "list", "float", "float", "float", "float", "float", "" ]
				}

			}
, 			{
				"box" : 				{
					"maxclass" : "dropfile",
					"patching_rect" : [ 9.0, 1.0, 97.0, 38.0 ],
					"types" : [  ],
					"numinlets" : 1,
					"id" : "obj-4",
					"numoutlets" : 2,
					"outlettype" : [ "", "" ]
				}

			}
, 			{
				"box" : 				{
					"maxclass" : "message",
					"text" : "replace $1",
					"patching_rect" : [ 9.0, 77.0, 67.0, 18.0 ],
					"fontname" : "Arial",
					"numinlets" : 2,
					"fontsize" : 12.0,
					"id" : "obj-3",
					"numoutlets" : 1,
					"outlettype" : [ "" ]
				}

			}
, 			{
				"box" : 				{
					"maxclass" : "newobj",
					"text" : "buffer~ mysamp",
					"patching_rect" : [ 9.0, 101.0, 97.0, 20.0 ],
					"fontname" : "Arial",
					"numinlets" : 1,
					"fontsize" : 12.0,
					"id" : "obj-1",
					"numoutlets" : 2,
					"outlettype" : [ "float", "bang" ]
				}

			}
 ],
		"lines" : [ 			{
				"patchline" : 				{
					"source" : [ "obj-95", 1 ],
					"destination" : [ "obj-96", 1 ],
					"hidden" : 0,
					"midpoints" : [ 1252.5, 493.0, 1199.5, 493.0 ]
				}

			}
, 			{
				"patchline" : 				{
					"source" : [ "obj-95", 0 ],
					"destination" : [ "obj-96", 0 ],
					"hidden" : 0,
					"midpoints" : [ 1147.5, 493.0, 1186.5, 493.0 ]
				}

			}
, 			{
				"patchline" : 				{
					"source" : [ "obj-87", 0 ],
					"destination" : [ "obj-85", 0 ],
					"hidden" : 0,
					"midpoints" : [  ]
				}

			}
, 			{
				"patchline" : 				{
					"source" : [ "obj-90", 0 ],
					"destination" : [ "obj-85", 1 ],
					"hidden" : 0,
					"midpoints" : [  ]
				}

			}
, 			{
				"patchline" : 				{
					"source" : [ "obj-85", 0 ],
					"destination" : [ "obj-62", 0 ],
					"hidden" : 0,
					"midpoints" : [ 378.5, 78.0, 434.5, 78.0, 434.5, -1.0, 604.5, -1.0 ]
				}

			}
, 			{
				"patchline" : 				{
					"source" : [ "obj-48", 1 ],
					"destination" : [ "obj-75", 1 ],
					"hidden" : 0,
					"midpoints" : [ 1251.5, 328.0, 1242.5, 328.0 ]
				}

			}
, 			{
				"patchline" : 				{
					"source" : [ "obj-48", 0 ],
					"destination" : [ "obj-75", 0 ],
					"hidden" : 0,
					"midpoints" : [ 1146.5, 328.0, 1167.5, 328.0 ]
				}

			}
, 			{
				"patchline" : 				{
					"source" : [ "obj-46", 0 ],
					"destination" : [ "obj-5", 0 ],
					"hidden" : 0,
					"midpoints" : [  ]
				}

			}
, 			{
				"patchline" : 				{
					"source" : [ "obj-33", 1 ],
					"destination" : [ "obj-46", 1 ],
					"hidden" : 0,
					"midpoints" : [ 1240.5, 126.0, 1185.5, 126.0 ]
				}

			}
, 			{
				"patchline" : 				{
					"source" : [ "obj-33", 0 ],
					"destination" : [ "obj-46", 0 ],
					"hidden" : 0,
					"midpoints" : [ 1135.5, 126.0, 1171.5, 126.0 ]
				}

			}
, 			{
				"patchline" : 				{
					"source" : [ "obj-19", 0 ],
					"destination" : [ "obj-58", 0 ],
					"hidden" : 0,
					"midpoints" : [ 858.5, 300.0, 740.5, 300.0 ]
				}

			}
, 			{
				"patchline" : 				{
					"source" : [ "obj-19", 0 ],
					"destination" : [ "obj-58", 1 ],
					"hidden" : 0,
					"midpoints" : [ 858.5, 300.0, 754.0, 300.0 ]
				}

			}
, 			{
				"patchline" : 				{
					"source" : [ "obj-5", 0 ],
					"destination" : [ "obj-6", 0 ],
					"hidden" : 0,
					"midpoints" : [ 1171.5, 187.5, 1171.5, 187.5 ]
				}

			}
, 			{
				"patchline" : 				{
					"source" : [ "obj-23", 3 ],
					"destination" : [ "obj-41", 1 ],
					"hidden" : 0,
					"midpoints" : [ 906.900024, 158.5, 809.0, 158.5 ]
				}

			}
, 			{
				"patchline" : 				{
					"source" : [ "obj-3", 0 ],
					"destination" : [ "obj-1", 0 ],
					"hidden" : 0,
					"midpoints" : [  ]
				}

			}
, 			{
				"patchline" : 				{
					"source" : [ "obj-4", 0 ],
					"destination" : [ "obj-3", 0 ],
					"hidden" : 0,
					"midpoints" : [  ]
				}

			}
, 			{
				"patchline" : 				{
					"source" : [ "obj-1", 1 ],
					"destination" : [ "obj-7", 0 ],
					"hidden" : 0,
					"midpoints" : [ 96.5, 131.5, 15.5, 131.5 ]
				}

			}
, 			{
				"patchline" : 				{
					"source" : [ "obj-7", 6 ],
					"destination" : [ "obj-9", 0 ],
					"hidden" : 0,
					"midpoints" : [ 96.5, 173.0, 86.5, 173.0 ]
				}

			}
, 			{
				"patchline" : 				{
					"source" : [ "obj-14", 0 ],
					"destination" : [ "obj-15", 0 ],
					"hidden" : 0,
					"midpoints" : [  ]
				}

			}
, 			{
				"patchline" : 				{
					"source" : [ "obj-14", 0 ],
					"destination" : [ "obj-15", 1 ],
					"hidden" : 0,
					"midpoints" : [  ]
				}

			}
, 			{
				"patchline" : 				{
					"source" : [ "obj-23", 2 ],
					"destination" : [ "obj-26", 0 ],
					"hidden" : 0,
					"midpoints" : [ 831.099976, 135.5, 752.5, 135.5 ]
				}

			}
, 			{
				"patchline" : 				{
					"source" : [ "obj-23", 3 ],
					"destination" : [ "obj-27", 0 ],
					"hidden" : 0,
					"midpoints" : [ 906.900024, 136.5, 804.5, 136.5 ]
				}

			}
, 			{
				"patchline" : 				{
					"source" : [ "obj-23", 2 ],
					"destination" : [ "obj-41", 0 ],
					"hidden" : 0,
					"midpoints" : [ 831.099976, 158.5, 795.5, 158.5 ]
				}

			}
, 			{
				"patchline" : 				{
					"source" : [ "obj-23", 3 ],
					"destination" : [ "obj-41", 0 ],
					"hidden" : 0,
					"midpoints" : [ 906.900024, 158.5, 795.5, 158.5 ]
				}

			}
, 			{
				"patchline" : 				{
					"source" : [ "obj-41", 0 ],
					"destination" : [ "obj-43", 0 ],
					"hidden" : 0,
					"midpoints" : [  ]
				}

			}
, 			{
				"patchline" : 				{
					"source" : [ "obj-41", 0 ],
					"destination" : [ "obj-44", 1 ],
					"hidden" : 0,
					"midpoints" : [  ]
				}

			}
, 			{
				"patchline" : 				{
					"source" : [ "obj-23", 2 ],
					"destination" : [ "obj-45", 1 ],
					"hidden" : 0,
					"midpoints" : [ 831.099976, 256.0, 786.0, 256.0 ]
				}

			}
, 			{
				"patchline" : 				{
					"source" : [ "obj-44", 0 ],
					"destination" : [ "obj-45", 0 ],
					"hidden" : 0,
					"midpoints" : [ 728.5, 259.5, 772.5, 259.5 ]
				}

			}
, 			{
				"patchline" : 				{
					"source" : [ "obj-45", 0 ],
					"destination" : [ "obj-47", 0 ],
					"hidden" : 0,
					"midpoints" : [  ]
				}

			}
, 			{
				"patchline" : 				{
					"source" : [ "obj-49", 0 ],
					"destination" : [ "obj-44", 0 ],
					"hidden" : 0,
					"midpoints" : [ 723.5, 218.0, 728.5, 218.0 ]
				}

			}
, 			{
				"patchline" : 				{
					"source" : [ "obj-45", 0 ],
					"destination" : [ "obj-50", 0 ],
					"hidden" : 0,
					"midpoints" : [ 772.5, 298.0, 783.5, 298.0 ]
				}

			}
, 			{
				"patchline" : 				{
					"source" : [ "obj-54", 0 ],
					"destination" : [ "obj-53", 0 ],
					"hidden" : 0,
					"midpoints" : [  ]
				}

			}
, 			{
				"patchline" : 				{
					"source" : [ "obj-58", 0 ],
					"destination" : [ "obj-54", 1 ],
					"hidden" : 0,
					"midpoints" : [ 740.5, 324.0, 762.75, 324.0, 762.75, 298.0, 722.0, 298.0 ]
				}

			}
, 			{
				"patchline" : 				{
					"source" : [ "obj-45", 0 ],
					"destination" : [ "obj-54", 0 ],
					"hidden" : 0,
					"midpoints" : [ 772.5, 295.0, 708.5, 295.0 ]
				}

			}
, 			{
				"patchline" : 				{
					"source" : [ "obj-53", 0 ],
					"destination" : [ "obj-59", 0 ],
					"hidden" : 0,
					"midpoints" : [  ]
				}

			}
, 			{
				"patchline" : 				{
					"source" : [ "obj-62", 0 ],
					"destination" : [ "obj-49", 0 ],
					"hidden" : 0,
					"midpoints" : [ 604.5, 120.5, 723.5, 120.5 ]
				}

			}
, 			{
				"patchline" : 				{
					"source" : [ "obj-51", 0 ],
					"destination" : [ "obj-2", 0 ],
					"hidden" : 0,
					"midpoints" : [  ]
				}

			}
, 			{
				"patchline" : 				{
					"source" : [ "obj-60", 0 ],
					"destination" : [ "obj-2", 1 ],
					"hidden" : 0,
					"midpoints" : [  ]
				}

			}
, 			{
				"patchline" : 				{
					"source" : [ "obj-74", 0 ],
					"destination" : [ "obj-2", 2 ],
					"hidden" : 0,
					"midpoints" : [  ]
				}

			}
, 			{
				"patchline" : 				{
					"source" : [ "obj-11", 0 ],
					"destination" : [ "obj-14", 0 ],
					"hidden" : 0,
					"midpoints" : [  ]
				}

			}
, 			{
				"patchline" : 				{
					"source" : [ "obj-2", 0 ],
					"destination" : [ "obj-12", 0 ],
					"hidden" : 0,
					"midpoints" : [  ]
				}

			}
, 			{
				"patchline" : 				{
					"source" : [ "obj-12", 0 ],
					"destination" : [ "obj-11", 0 ],
					"hidden" : 0,
					"midpoints" : [  ]
				}

			}
 ]
	}

}
